<svg xmlns="http://www.w3.org/2000/svg" viewBox="0 0 1280 400"><defs><style>.a{fill:#008059;}.b,.c{fill:none;stroke:#fff;stroke-miterlimit:10;}.c{stroke-width:0.5px;}</style></defs><rect class="a" width="1280" height="400"/><path class="b" d="M1305.74-3.39s-105.39,78.78-164.87,99.65S1022,128.58,991.65,120.78c-37.56-9.65-80.34-59-101.22-86.08a473.16,473.16,0,0,1-36-54.79"/><path class="b" d="M796.52-27.91s17.22,35.55,36,65.74,65.22,113.74,115.83,143.48,133,25.56,206.61-19.31S1305.74-3.39,1305.74-3.39"/><path class="b" d="M1305.74-3.39s-77.74,37-129.39,49-168,50.09-168,50.09"/><path class="b" d="M1305.74-3.39s-93.39,24.52-140.35,23S1042.78,15.4,1024,17.48a245.27,245.27,0,0,0-33.91,6.26"/><path class="b" d="M1089.87-13.3c8.74,8.82,9.1,19.22,3.93,30.68,1.32,18-5.82,37.08-17.91,56.91,17.53,10.83,25.44,22.26,26.51,34.14,36,1,66.43,8.27,83.42,30.83,32.59-1.57,59.93,4,81.69,17.3,17.82-8.65,35.32-13,52.45-12.56"/><path class="b" d="M1124.7-15.65c6.07,10,8.58,21,4.32,34,3.84,16.14,3.14,30.21-4.32,41.21,12.35,10,16.28,22.69,14.08,37.4,29.67-.61,49.24,10.41,64.65,26.26,25.88-6.3,47.83-2.93,67.88,5.15,14.26-12.49,31.19-14.91,48.65-15.31"/><path class="b" d="M1147.91-17.61c7.2,12.74,8.43,25,1.83,36.66,4.36,9.37,2.2,21.27-2.35,34.09,11.73,9.5,18.18,20.2,19,32.18,23-2,43.7,2.73,63.48,10.42,19.89-5.61,35.17-4.48,48.18,0,15.7-12.19,30.84-12.49,45.83-9.53"/><path class="b" d="M1175.17-17.61c7.45,12.46,7.66,24.82,1.94,37.09,3.37,8.64,1.21,17.75-5.13,27.21,11,4.16,18,12.17,20.2,24.94,22.09-3.38,37.77,1.18,49.75,10.29,13-5.31,26.62-4.62,40.29-3.41a116.16,116.16,0,0,1,34.61-12"/><path class="b" d="M1208.83-17.61c5.82,12.4,8.26,23.94,3.11,33.57,2.83,7.9.71,14.8-5.16,20.94,11,1.48,16.41,6.91,16.92,15.83,17.6-5.33,29.63-3,41.06,1.08,11.24-1.3,18.13,2.33,22,7.23,9.74-6.8,25.11-11,43-14.87"/><path class="b" d="M1229.17-17.61c5.28,10.55,8.52,20.66,6.46,29.67,2.44,6.16,1,11.3-3.23,15.71a22.09,22.09,0,0,1,17.49,8c12.48-3.09,21.55-2.52,27.41,1.5,7.18.27,11.36,3.13,14,7.31,10.61-5.24,26.17-9,42.75-12.43"/><path class="b" d="M1246.39-17.61c4.57,9.26,6.51,18.18,5,26.64,3.68,3.17,2.77,7.08,0,11.3,7-.29,10.11,2.46,11,7,8.55-2.67,15.88-1.87,22.84,0,5.17-2.35,8.37-1.12,10.37,2.27,9.31-3.49,17-3.38,24.34-2.6"/><path class="b" d="M1266-11.35c4.27,5.53,5.69,11.26,2.31,17.35,2.82,1.25,3.3,3.48,3.64,5.78,4.72-.7,7.27.55,7.9,3.52,7.54-.48,9.66.62,11.74,2.25,3.56-1.35,5.7-.38,7.15,1.74,7-3.75,14.14-3.3,21.27-2.07"/><path class="b" d="M993.86,303.13c-.12-32.73,2.3-53.5-16-81.39-15.16-23.05-43.91-52.21-70.83-76.09"/><path class="b" d="M1008.82,199.56s-11.87-2.34-14.91,5.75,0,97.82,0,97.82"/><path class="b" d="M1266,239.22s-4-37.05,2.75-93.39,37-149.22,37-149.22"/><path class="b" d="M1185.82,139.26c51.84,20,75.07,45.66,79.45,90.78"/><path class="c" d="M1305.09,150.65s-26.42,3.72-30.52,26.61-8.8,55-8.8,55"/><path class="b" d="M1102.4,108.43s-10.57,4-9,23.83S1095.48,234,1095.48,234"/><path class="c" d="M1190.37,135.32s30.78-8,54-5.67,25.76,5.67,25.76,5.67"/><path class="c" d="M859.78-20.09s47.35,92.48,86.09,119.48,118.56,34,181.17,6.65S1310.17-6.66,1310.17-6.66"/><path class="c" d="M1215.52,111.15s-66,78.38-104.39,88.1-64.17,8.93-93.65,4a296.92,296.92,0,0,1-51.55-13.42"/><path class="c" d="M1081.1,72.69s24.23-20.84,34.4-38.65,10-29.15,10-29.15"/><path class="c" d="M1087.12,70.84s28-2.56,38.36,6.64,11.82,20,11.82,20"/><path class="c" d="M1239.87,80.43c-16.17-9.6-31.46-16.83-26.12-21.53s46.54-6.56,46.54-6.56"/><path class="c" d="M1244,79.51c14.27-9.68,28-16.05,39.2-4.79,6.06-11.66,16-14.22,27-14.2"/><path class="c" d="M1132.78,4s-.35,32.5,4.52,40.61,8.35,9,8.35,9"/><path class="c" d="M1142.16,54.59c-8.07,4.3-5.14,18.29-4,24.92s11.63,12.85,18.92,10.21a114.54,114.54,0,0,0,14.94-7"/><path class="c" d="M1015.12,18.64a92.1,92.1,0,0,1,39.47,1.77c12.63,3.26,25.14,7.65,38.17,8.14,18.09.67,35.51-6.19,53.35-9.28,21.59-3.75,43.71-2,65.59-3a250.5,250.5,0,0,0,93.66-23.3"/><path class="c" d="M1140.38,96.55l41.68-2.1c15-.75,30.64-1.4,44.37,4.69"/><path class="c" d="M1206.36,120.47a56,56,0,0,1-15.16-9.56,15,15,0,0,1-3.65-4.28,6.18,6.18,0,0,1-.27-5.45c1.33-2.67,4.73-3.43,7.7-3.68a63.15,63.15,0,0,1,29.51,4.66"/><path class="c" d="M1234.91,94.43c-2.88,1.62-7.32,4.46-9.59,6.87s-3.8,5.73-3.28,9c.58,3.6,3.55,6.44,6.9,7.88s7.07,1.7,10.7,1.93c6.68.44,13.48.83,20-.77s12.76-5.54,15.52-11.63"/><path class="c" d="M811.71-14.12C829.21,1,838.21,23.6,844.05,46s9.19,45.52,18.38,66.72c17.19,39.65,64.56,71.38,107.19,78.44"/><path class="b" d="M-27.35-28C5.6,80.1,40.05,176,77.33,249"/><line class="b" x1="182" y1="182.52" x2="-27.35" y2="-28"/><path class="b" d="M-27.35-28c124.5,62.54,266.6,87.74,419.48,83.35,67.95-2,141.26-34.63,204.46-77.48"/><path class="b" d="M286.87,152C157.65,92.27,49.6,32.31-27.35-28"/><path class="b" d="M-27.35-28c54,93.27,103.55,184.89,147.13,274.31"/><path class="b" d="M246.17,80.39C164.11,66.89,70.68,25.17-27.35-28"/><path class="b" d="M259.61-3.22c-16.71,15-30.75,31.15-38.6,50-6.22,5.4-9.78,14.13-10.82,26.07-8.07,17.17-2.63,33,11.37,48-31.46,1.24-60.46,5.61-83.85,17.1-23.24,4.8-43.64,12.72-59.7,25.39-13.51,3.93-25,9.3-31.8,18.12-19.44,2-34.64,12.45-46.95,28.68"/><path class="b" d="M220.74-3.22c-15.09,12-28.29,25.92-36.83,44.38-7.1,7-10.09,14.15-9.57,21.5-5.67,11.73-7.25,22.85-2.55,33-23.74-2.15-46.12.62-66.86,9.32-17.87,2.2-32.42,11-44.4,25.06-10.91-.64-19.86,6.75-27.93,17.76-14,0-25,6-33.34,17.2"/><path class="b" d="M164.91-3.22C151.48,3.05,140.41,12.7,135.6,31.3c-5.55,5.36-7.78,10.54-5.84,15.51C126.34,55.46,128,65,133.08,75c-17.31,2.25-32.64,6.3-44.8,13.27-14.44,1-28.09,7.1-41.23,16.62-9.93,1.24-17.32,8.78-23,20.5C12.73,124.92,4.17,130.52-2,141.3"/><path class="b" d="M134.65-7.91C121.84-.13,115,11.05,115.14,26.2c-4.44,2.41-6.77,6.26-5.73,12.4-4.07,6.67-3.75,14.49,0,23.19-14.87,1.37-28.2,4-38.16,9.35-11.69,1.73-22.6,8.31-33.12,17.28-8,.61-14.82,7.87-21.2,17.71-11.4.27-19.72,3.4-23.67,10.65"/><path class="b" d="M112.22-7.91C101.56.34,96.34,10,97.74,21.39c-4.83,2.82-6.45,6.25-4.39,10.35C90.49,39,89.8,45.91,92.64,52.12c-11.66.33-22.79,2.31-32.9,7.46C49.24,61.78,40,67.79,32,77.26c-7.85.37-14.66,5.07-20.52,13.72C5.1,88.41-1,89.05-6.74,94.21"/><path class="b" d="M89.52-11C81.67-1.67,78.74,7.51,81.43,16.47c-2.2,1.33-3.69,3.83-4.1,8.13-4.24,3.16-3.56,9.87-2,17.23-10.85-.23-20.14,1.54-27.5,5.77-10.56,3.92-18.62,9.46-22.3,17.86-8.28.69-14.7,4.39-18.82,11.8-5.18-1.66-10-2.52-13.45,0"/><path class="b" d="M77.33-12.09c-6.62,5.85-9,13.57-7.07,24.47-2.1-.39-4.63,1.71-6.3,6a20.15,20.15,0,0,0-6.1,12.68c-9.21.34-16.51,2-20.17,6.29-8.89,1.94-15,7.57-18.26,17C12.3,56.12,6.37,59.36,2.7,65.55c-5.44-3.95-10.1-4.78-13.87-2"/><path class="b" d="M64-12.09,57,8.31c-5-.28-4.68,1.43-3.32,4.91a9.8,9.8,0,0,0-7.43,10.54c-5.16-1.68-11.1.35-17.51,4.62-8.82,3-13.38,8.79-14.47,16.74C9.36,44.6,4,46.58-2,51.49l-9.13-1.75"/><path class="b" d="M52.74-15.48,46.22,4.41c-1.47.13-2.25,1.65-2.47,4.35-4.65-.15-7.65,2.8-10,6.88C29,14.3,24.39,15.36,20.09,19.7c-5,2.73-8.53,8.44-11.33,15.63C2.24,34.36-3.06,35.19-6,39.5h-9.08"/><path class="b" d="M38.65-17.3,34.79,0,31.41,2.67c-5.66-.16-8.5,1.75-8.1,6a19.14,19.14,0,0,0-14.16,0c-5.8,2.4-8.34,6.94-7.77,13.51-4.83-.86-9.33-1-12.56,1.43l-11.74-3.94"/><path class="b" d="M28.48-21.74,24-4.31l-2.79,1.1c-6.38.06-9.22,1.73-6.93,5.73L3.65,3.17C-1,2.63-4,5.14-5.21,10.59c-3.68-.84-7.1-.93-9.88.83l-10.17-2.9"/><path class="b" d="M11.51-19.91,10-10.26l-2.09.95c-5.43,1-5.54,2.54-4.59,4.15H-4.64c-2.1.3-4.1,2.14-5.92,6.36-2.12-2-4.83-1.44-7.75,0h-9"/><path class="c" d="M581-17.14C550.86,4,520.58,25.15,487.71,41.71S419.05,70.14,382.27,71.4c-26.49.9-52.83-3.69-78.93-8.26C249.45,53.69,193.92,41.46,140,32"/><path class="c" d="M11.25,11.35c23,16.18,30,47.34,49.51,67.55,11.42,11.81,26.49,19.23,40.5,27.79a263,263,0,0,1,71.87,64.8"/><path class="c" d="M45.15,179l4.65-19.8c.91-3.86,1.87-7.84,4.21-11s6.47-5.44,10.3-4.4,6.08,4.81,7.54,8.43,2.93,7.55,5.72,10.3"/><path class="c" d="M88.24,87.54a42.92,42.92,0,0,1,34.41-18.29c-3-7,1.21-17.64,7.11-22.44"/><path class="c" d="M221.56,120.88A315.4,315.4,0,0,0,184,106.23,142,142,0,0,0,104.93,105"/><path class="c" d="M49.93,26.05c17,9.34,32.34,22.4,49.31,31.74,16.35,9,34.3,14.28,50.65,23.28l30.38,16.72,36.2,19.93c14.06,7.74,30.63,14.7,44.77,22.3"/><path class="c" d="M30.27,74.49a35.61,35.61,0,0,1,22.82-21.6"/><path class="c" d="M34.21,34.18A16.85,16.85,0,0,1,47.33,24.7a15.51,15.51,0,0,1,12.25-8.27"/><path class="c" d="M37.43,37.57a12.78,12.78,0,0,1,.19,10.18,24.8,24.8,0,0,1-6,8.51C30,57.84,28.19,59.37,26,59.78a6.55,6.55,0,0,1-4.38-.72,22.71,22.71,0,0,1-5.35,6.16c-2.12,1.7-4.4,3.19-6.57,4.82a15.58,15.58,0,0,0-4.22,4.23"/><path class="c" d="M46.52,104.56c-1.12-6.1,1.11-12.34,4.11-17.78a21.19,21.19,0,0,1,5.24-6.72c3.57-2.77,8.42-3.44,12.89-2.8s8.68,2.45,12.83,4.25"/><path class="c" d="M58.86,74.94q2.91.74,5.8,1.43a13.44,13.44,0,0,0,5.12.54,4.68,4.68,0,0,0,3.89-3"/><path class="c" d="M76.48,161C74.92,152.68,77,144,81,136.61S90.8,123,97.1,117.39c3.67-3.24,7.7-6.37,12.48-7.41"/><path class="c" d="M71.28,119.51c-4.32,6-5.23,12.65-5.18,18.34,0,1.55,1.84,6.05,2.48,7.47,1.13,2.48,2.29,1.12,5,.65s5.14-4.15,6.22-7"/><path class="c" d="M104.31,104.71c12.16-6.92,22.71-17.52,30.34-29.25,13.6-.33,27-4.66,37.57-13.27"/><path class="c" d="M145.81,81.94c-2.87-4.8-5.95-9.15-7.38-14.55S137,56,139.88,51.22A13.68,13.68,0,0,1,149,34.6,33.88,33.88,0,0,1,168.86-2c-5.61,2.26-8.55,8.66-10.55,14.37a43.27,43.27,0,0,0-1.48,23.3,9.58,9.58,0,0,0-3.78,8.08,15.71,15.71,0,0,0,3.17,8.59,46.67,46.67,0,0,0,6.32,6.79A36.53,36.53,0,0,0,147.71,83s-9.86,10-22.12,12.3-37.3-7-37.3-7"/><path class="c" d="M134.65,134.91c-10.3-10.37-2.93-32.6,15.26-33,11.55-.25,30,3.13,30,3.13"/><path class="c" d="M218.17-1.14s-26.65,36-14.12,42.53,19.42,0,19.42,0"/><path class="c" d="M259.61,1.2c-14.43,13.42-24.53,28.5-24.44,47.47-11.79,5.26-19,12.91-14.43,26.79-23.66,13.06-15,27.61-4.27,42.26-22.54-.7-47.74,5.73-76.74,22.3-25.76-2.84-44.48,7.95-60,25-12.37,6.58-24.94,8.59-37.7,6.44-19.49,3.33-31.4,27.18-40.46,58.77"/><path class="c" d="M224.61,122.59a58.35,58.35,0,0,1,22.47,37.48c2.33,15.27-1.51,30.7-3.62,46a205.39,205.39,0,0,0,.12,56.9"/><path class="c" d="M267.51,143c-2-1.54-5.46-.7-7.66.58a16.62,16.62,0,0,0-5.15,5.56c-3.1,4.79-5.23,10.52-7.07,15.92"/><path class="c" d="M5.06,76.21c3.51,18.16,14.35,33.88,24,49.67,9.89,16.22,18.83,33.32,23,51.85,2.63,11.63,3.34,23.6,4,35.5L58.3,251.1q.6,10.13,1.19,20.25"/></svg>